<svg width="100" height="100" viewBox="0 0 100 100" xmlns="http://www.w3.org/2000/svg">
    <g clip-path="url(#clip_leafs)">
        <rect width="100" height="100" fill="#FFF"/>
        <path d="M34.6216 50.6854C41.1771 53.3342 45.5581 62.797 42.5412 66.0755C42.5412 66.0755 41.642 64.1499 39.0255 62.9294C36.409 61.7089 34.7607 59.3707 31.4345 58.7934C29.5263 58.4622 26.605 58.6231 26.4757 58.8603C26.3465 59.0975 31.9759 64.0106 36.8708 65.7547C41.7657 67.4988 42.1368 77.5456 33.2564 82.5516C33.1839 81.179 32.211 79.4504 31.3784 77.529C29.3281 72.7976 28.0739 64.961 24.6465 66.17C21.14 67.4067 23.4138 73.7021 24.8883 76.4539C26.3699 79.0045 29.3696 83.0069 27.7821 86.9523C26.2484 90.7643 22.8834 93.4894 18.8804 92.5619C18.1537 92.3936 16.7804 92.4637 17.0906 91.8944C17.5291 92.0307 18.0902 92.0495 18.6645 91.829C20.2557 91.2182 18.6037 89.1748 18.5763 87.4739C18.5238 84.2159 20.4131 81.0913 19.0902 79.7552C17.7672 78.4191 16.3129 78.9804 16.1585 80.619C15.9653 82.6673 18.1247 89.9966 15.1503 92.0678C12.176 94.1389 1.65638 97.6364 1.65638 97.6364C1.65638 97.6364 4.32651 90.4773 2.47133 88.2359C0.616156 85.9945 1.08746 80.0308 3.84589 76.6791C5.99222 74.0712 7.73213 73.9266 11.0886 73.5496C14.3655 73.1816 19.5387 70.4627 17.9207 68.3506C16.6264 66.6609 15.5557 66.8568 15.1821 67.166C11.1151 69.5294 2.96747 74.5771 2.66541 76.0006C2.66361 76.0113 2.66175 76.0221 2.65982 76.0329C2.66121 76.0223 2.66307 76.0116 2.66541 76.0006C2.94442 74.3283 1.6706 72.5609 1.77325 70.3199C1.9481 66.5026 4.06386 62.954 5.47742 61.263C7.24437 59.1493 15.3082 60.159 15.4162 60.5254C15.5242 60.8919 22.5312 61.0181 21.2143 57.2241C19.7048 56.6068 16.1126 55.8596 13.8195 57.8096C11.5264 59.7597 5.54126 59.452 5.54126 59.452C6.20171 57.8634 6.87229 55.9936 8.38479 54.2332C11.6596 50.4214 17.8035 47.6746 20.2836 49.3336C22.2266 50.6332 23.7224 53.8723 24.2635 55.4231C22.4952 50.1815 26.541 45.7821 28.7993 44.2302C30.8793 44.4531 34.2467 44.9718 31.076 45.2631C28.1693 45.0863 25.7586 51.3224 24.9166 54.4625C26.5746 51.9742 30.0611 48.8426 34.6216 50.6854Z" fill="#7DD3FC"/>
        <path d="M68.5889 82.3763C76.1872 85.9637 87.981 82.1586 88.4108 76.8813C88.4108 76.8813 86.0046 77.6489 82.8293 76.3487C79.6541 75.0485 76.2837 75.4948 73.0978 73.0563C71.2701 71.6574 69.0551 68.9772 69.1579 68.6731C69.2608 68.369 78.0892 69.3223 83.5586 72.1894C89.0281 75.0566 98.0986 67.2799 95.3088 55.4906C94.0519 56.534 91.7584 57.0784 89.4095 57.9007C83.6257 59.9257 75.7728 65.1494 74.0647 61.1823C72.3172 57.1237 79.6467 54.0329 83.2381 53.1014C86.6595 52.3384 92.5723 51.7301 94.7369 47.163C96.8284 42.7503 96.4942 37.6153 92.4569 34.8683C91.7239 34.3696 90.6779 33.1142 90.431 33.844C90.9036 34.1169 91.3723 34.5916 91.6429 35.2708C92.3926 37.1525 89.2767 37.3578 87.7696 38.7053C84.8828 41.2864 83.6784 45.4552 81.4452 45.3775C79.212 45.2999 78.5294 43.5777 79.8354 42.1216C81.468 40.3014 89.6079 36.2769 89.0179 32.0103C88.4279 27.7436 82.9994 15.7394 82.9994 15.7394C82.9994 15.7394 78.902 23.843 75.4494 24.0306C71.9967 24.2181 67.1702 29.4381 66.4681 34.5489C65.9218 38.5255 67.1985 40.1611 69.5758 43.3954C71.8966 46.553 73.694 53.2617 70.5455 53.5522C68.0266 53.7846 67.3344 52.6918 67.3031 52.1163C66.0872 46.6601 63.9247 35.4768 64.9239 34.0654C64.9318 34.0551 64.9397 34.0448 64.9476 34.0344C64.9395 34.0441 64.9316 34.0545 64.9239 34.0654C63.6889 35.6573 61.1187 35.9703 59.245 37.8668C56.0533 41.0974 54.6612 45.8058 54.3247 48.4033C53.904 51.6502 61.2874 57.8762 61.6944 57.675C62.1014 57.4738 67.8613 63.4895 63.4872 65.3989C61.7311 64.5788 58.1824 62.0451 58.0359 58.4708C57.8895 54.8965 52.795 49.9193 52.795 49.9193C51.9406 51.7767 50.8489 53.8698 50.5315 56.6098C49.8442 62.5422 52.3999 70.1209 55.848 70.9485C58.5492 71.5969 62.5832 70.2912 64.3734 69.5131C58.3714 72.1956 57.7927 79.2751 58.2587 82.498C60.1304 84.1342 63.2984 86.6559 60.9961 83.6528C58.4982 81.2576 61.9988 74.1248 64.0613 70.8578C63.2258 74.3117 63.3029 79.8806 68.5889 82.3763Z" fill="#7DD3FC"/>
        <path d="M54.0797 26.4813C57.3643 20.5849 54.9501 10.9275 50.7437 10.2987C50.7437 10.2987 51.2292 12.2685 50.0161 14.7433C48.8029 17.2181 48.979 19.9434 46.853 22.3654C45.6333 23.7549 43.3659 25.3857 43.1277 25.2869C42.8895 25.188 44.1292 18.1638 46.7219 13.9347C49.3146 9.70561 43.5706 2.01688 33.9715 3.61759C34.7401 4.6811 35.0528 6.54863 35.5853 8.47546C36.8965 13.2201 40.66 19.7954 37.3885 20.9506C34.0415 22.1325 31.9593 16.0916 31.4063 13.1631C30.9791 10.3798 30.8102 5.6081 27.2665 3.62716C23.8425 1.71318 19.709 1.70427 17.2899 4.79201C16.8507 5.35259 15.7881 6.12327 16.3598 6.3605C16.6039 5.99647 17.0097 5.64635 17.5686 5.46609C19.117 4.96664 19.1137 7.47498 20.1125 8.75544C22.0256 11.2082 25.3018 12.3982 25.1192 14.1838C24.9367 15.9694 23.5196 16.4237 22.423 15.2985C21.0522 13.892 18.2653 7.15128 14.8139 7.39426C11.3625 7.63723 1.4491 11.3411 1.4491 11.3411C1.4491 11.3411 7.72305 15.0616 7.68734 17.8389C7.65163 20.6162 11.5752 24.7658 15.6334 25.6039C18.7911 26.256 20.1708 25.3209 22.8911 23.5899C25.5469 21.9 31.0205 20.8209 31.0836 23.36C31.1341 25.3913 30.221 25.8872 29.7581 25.8812C25.3196 26.5618 16.2401 27.6923 15.1627 26.8155C15.1549 26.8085 15.1471 26.8017 15.1392 26.7948C15.1465 26.8018 15.1544 26.8087 15.1627 26.8155C16.372 27.8911 16.4844 29.9678 17.9034 31.5717C20.3206 34.3038 24.0192 35.6733 26.0829 36.083C28.6625 36.595 34.0503 31.013 33.911 30.676C33.7716 30.339 38.9034 26.0467 40.198 29.6553C39.4461 31.0186 37.2242 33.7262 34.3516 33.651C31.4791 33.5757 27.2155 37.3906 27.2155 37.3906C28.6581 38.1754 30.2768 39.1632 32.4557 39.5653C37.1733 40.4358 43.385 38.7958 44.2341 36.0769C44.8993 33.9469 44.0703 30.6435 43.5431 29.1667C45.3697 34.1217 51.0124 34.967 53.6206 34.7672C55.0328 33.3552 57.2245 30.9521 54.6936 32.6354C52.6393 34.5084 47.1113 31.3184 44.604 29.4893C47.3271 30.3451 51.7946 30.5834 54.0797 26.4813Z" fill="#7DD3FC"/>
    </g>
    <defs>
        <clipPath id="clip_leafs">
            <rect width="100" height="100" fill="white"/>
        </clipPath>
    </defs>
</svg>
